<svg width="84" height="70" viewBox="0 0 84 70" fill="none" xmlns="http://www.w3.org/2000/svg">
<path d="M0 20.8147V24.6805L29.3574 24.5711L24.9949 34.8832L34.7537 22.9311L43.4238 33.8351L53.2617 23.2007C53.2617 23.2007 57.6403 30.8147 60.0466 33.9466C60.0466 33.9466 62.6657 37.3461 66.4362 38.8766C72.0453 41.1572 78.9499 40.4071 83.2799 33.2837L78.514 30.1194C63.8009 41.441 63.288 13.5981 78.3255 23.8798L82.2622 19.4383C82.2622 19.4383 79.0512 15.4854 74.3887 15.0516L79.9269 0.125682L15.0355 0L27.691 20.8756L0 20.8208V20.8147Z" fill="#2D2E83"/>
<path d="M20.9883 4.21484H74.3918L70.897 15.0621C70.897 15.0621 62.2978 14.6993 60.3335 23.4403L53.2648 13.8945L43.4269 23.5113L34.7568 14.1864L30.6072 20.7422L20.9903 4.21484H20.9883Z" fill="#E52421"/>
<path d="M78.205 45.7832V54.5483H79.9377V56.7412H75.3555V45.7832H78.205Z" fill="#2D2E83"/>
<path d="M69.5859 45.7832H74.3374V47.9762H72.4354V50.054H74.2155V52.1387H72.4354V54.5483H74.5269V56.7412H69.5859V45.7832Z" fill="#2D2E83"/>
<path d="M61.9258 45.7832H64.0578C65.4341 45.7832 66.3636 45.8464 66.8464 45.9727C67.3338 46.0991 67.7038 46.3066 67.9564 46.5954C68.2091 46.8842 68.3671 47.2068 68.4302 47.5633C68.4934 47.9152 68.525 48.6101 68.525 49.6479V53.4856C68.525 54.4693 68.4776 55.1281 68.3829 55.462C68.2926 55.7914 68.1324 56.0508 67.9023 56.2403C67.6722 56.4253 67.3879 56.5562 67.0495 56.6329C66.7111 56.7051 66.2012 56.7412 65.5198 56.7412H61.9258V45.7832ZM64.7753 47.658V54.8664C65.1859 54.8664 65.4386 54.7851 65.5333 54.6227C65.6281 54.4557 65.6755 54.0068 65.6755 53.2758V49.0185C65.6755 48.5221 65.6597 48.204 65.6281 48.0641C65.5965 47.9243 65.5243 47.8227 65.4115 47.7596C65.2987 47.6919 65.0866 47.658 64.7753 47.658Z" fill="#2D2E83"/>
<path d="M59.494 45.7832V54.5483H61.2268V56.7412H56.6445V45.7832H59.494Z" fill="#2D2E83"/>
<path d="M55.5018 45.7832V56.7412H52.6523V45.7832H55.5018Z" fill="#2D2E83"/>
<path d="M52.0043 45.7832V47.9762H50.3122V56.7412H47.4627V47.9762H45.7773V45.7832H52.0043Z" fill="#2D2E83"/>
<path d="M45.1162 45.7832V56.7412H42.6187L41.1364 51.7597V56.7412H38.7539V45.7832H41.1364L42.7337 50.7173V45.7832H45.1162Z" fill="#2D2E83"/>
<path d="M36.6329 45.7832L38.2641 56.7412H35.3469L35.2048 54.7716H34.1827L34.0135 56.7412H31.0625L32.5109 45.7832H36.6329ZM35.1236 52.8291C34.9792 51.5882 34.8348 50.0563 34.6904 48.2334C34.4016 50.327 34.2211 51.8589 34.1489 52.8291H35.1236Z" fill="#2D2E83"/>
<path d="M30.6916 50.5613H27.8421V48.6527C27.8421 48.0976 27.8105 47.7525 27.7474 47.6171C27.6887 47.4772 27.5556 47.4073 27.348 47.4073C27.1134 47.4073 26.9645 47.4907 26.9013 47.6577C26.8381 47.8247 26.8065 48.1856 26.8065 48.7406V53.8305C26.8065 54.3629 26.8381 54.7103 26.9013 54.8728C26.9645 55.0352 27.1066 55.1165 27.3277 55.1165C27.5398 55.1165 27.6774 55.0352 27.7406 54.8728C27.8083 54.7103 27.8421 54.3291 27.8421 53.7289V52.355H30.6916V52.7814C30.6916 53.9139 30.6104 54.7171 30.4479 55.1909C30.29 55.6647 29.9358 56.0798 29.3853 56.4363C28.8393 56.7928 28.1647 56.971 27.3615 56.971C26.5268 56.971 25.8387 56.8198 25.2972 56.5175C24.7557 56.2152 24.397 55.7978 24.221 55.2654C24.045 54.7284 23.957 53.923 23.957 52.849V49.6476C23.957 48.858 23.9841 48.2669 24.0383 47.8743C24.0924 47.4772 24.2526 47.0959 24.5188 46.7304C24.7895 46.3649 25.1618 46.0784 25.6356 45.8708C26.1139 45.6588 26.6621 45.5527 27.2803 45.5527C28.1196 45.5527 28.8122 45.7152 29.3582 46.0401C29.9042 46.3649 30.2629 46.771 30.4344 47.2584C30.6059 47.7412 30.6916 48.4947 30.6916 49.519V50.5613Z" fill="#2D2E83"/>
<path d="M16.5625 45.7832H18.5795C19.9242 45.7832 20.8334 45.8351 21.3072 45.9389C21.7855 46.0427 22.1735 46.3089 22.4713 46.7375C22.7737 47.1617 22.9248 47.8408 22.9248 48.7748C22.9248 49.6276 22.8188 50.2007 22.6067 50.494C22.3946 50.7873 21.9772 50.9633 21.3545 51.0219C21.9186 51.1618 22.2976 51.3491 22.4916 51.5837C22.6857 51.8183 22.8052 52.0349 22.8504 52.2335C22.9 52.4275 22.9248 52.9667 22.9248 53.8511V56.7412H20.2784V53.0998C20.2784 52.5132 20.231 52.15 20.1362 52.0101C20.046 51.8702 19.8046 51.8003 19.412 51.8003V56.7412H16.5625V45.7832ZM19.412 47.658V50.0947C19.7324 50.0947 19.9557 50.0518 20.0821 49.9661C20.2129 49.8758 20.2784 49.5893 20.2784 49.1065V48.5041C20.2784 48.1566 20.2152 47.9288 20.0888 47.8205C19.967 47.7122 19.7414 47.658 19.412 47.658Z" fill="#2D2E83"/>
<path d="M10.7969 45.7832H15.5483V47.9762H13.6464V50.054H15.4265V52.1387H13.6464V54.5483H15.7378V56.7412H10.7969V45.7832Z" fill="#2D2E83"/>
<path d="M9.65546 45.7832V56.7412H7.16468V49.3434L6.16973 56.7412H4.40317L3.35406 49.5126V56.7412H0.863281V45.7832H4.55207C4.66037 46.442 4.77543 47.2181 4.89726 48.1115L5.28983 50.9001L5.9396 45.7832H9.65546Z" fill="#2D2E83"/>
<path d="M75.7695 58.5254H77.8381C79.2172 58.5254 80.1497 58.5786 80.6356 58.685C81.1262 58.7915 81.5242 59.0645 81.8296 59.5042C82.1396 59.9392 82.2947 60.6356 82.2947 61.5936C82.2947 62.4682 82.1859 63.0559 81.9684 63.3567C81.7509 63.6575 81.3228 63.838 80.6842 63.8982C81.2627 64.0416 81.6514 64.2337 81.8504 64.4743C82.0494 64.715 82.172 64.9371 82.2183 65.1407C82.2692 65.3397 82.2947 65.8927 82.2947 66.7998V69.7638H79.5805V66.0293C79.5805 65.4277 79.5319 65.0551 79.4347 64.9117C79.3422 64.7682 79.0946 64.6965 78.692 64.6965V69.7638H75.7695V58.5254ZM78.692 60.4482V62.9472C79.0205 62.9472 79.2496 62.9032 79.3792 62.8153C79.5134 62.7227 79.5805 62.4289 79.5805 61.9337V61.3159C79.5805 60.9596 79.5157 60.7259 79.3861 60.6148C79.2612 60.5037 79.0298 60.4482 78.692 60.4482Z" fill="#2D2E83"/>
<path d="M74.6752 65.1077C74.6752 66.2368 74.6475 67.0374 74.5919 67.5095C74.541 67.9769 74.3744 68.4049 74.0921 68.7936C73.8145 69.1824 73.4373 69.4809 72.9606 69.6891C72.484 69.8974 71.9286 70.0015 71.2946 70.0015C70.693 70.0015 70.1516 69.9043 69.6703 69.7099C69.1936 69.5109 68.8095 69.2148 68.518 68.8214C68.2264 68.4281 68.0529 68 67.9974 67.5372C67.9418 67.0744 67.9141 66.2646 67.9141 65.1077V63.1848C67.9141 62.0557 67.9395 61.2574 67.9904 60.79C68.046 60.318 68.2125 59.8876 68.4902 59.4989C68.7725 59.1101 69.152 58.8116 69.6286 58.6034C70.1053 58.3951 70.6606 58.291 71.2946 58.291C71.8963 58.291 72.4354 58.3905 72.912 58.5895C73.3933 58.7839 73.7798 59.0777 74.0713 59.4711C74.3628 59.8644 74.5364 60.2925 74.5919 60.7553C74.6475 61.2181 74.6752 62.0279 74.6752 63.1848V65.1077ZM71.7528 61.4147C71.7528 60.8918 71.7227 60.5586 71.6625 60.4151C71.607 60.2671 71.489 60.193 71.3085 60.193C71.1558 60.193 71.0378 60.2532 70.9545 60.3735C70.8758 60.4892 70.8365 60.8363 70.8365 61.4147V66.6626C70.8365 67.3151 70.8619 67.7177 70.9128 67.8704C70.9684 68.0231 71.0933 68.0995 71.2877 68.0995C71.4867 68.0995 71.614 68.0116 71.6695 67.8357C71.725 67.6599 71.7528 67.241 71.7528 66.5793V61.4147Z" fill="#2D2E83"/>
<path d="M67.3277 58.5254V60.7745H65.5923V69.7638H62.6699V60.7745H60.9414V58.5254H67.3277Z" fill="#2D2E83"/>
<path d="M60.3952 63.4278H57.4728V61.4703C57.4728 60.9011 57.4404 60.547 57.3756 60.4082C57.3154 60.2647 57.1789 60.193 56.966 60.193C56.7254 60.193 56.5727 60.2786 56.5079 60.4499C56.4431 60.6211 56.4107 60.9913 56.4107 61.5605V66.7806C56.4107 67.3267 56.4431 67.683 56.5079 67.8496C56.5727 68.0162 56.7185 68.0995 56.9452 68.0995C57.1627 68.0995 57.3039 68.0162 57.3687 67.8496C57.4381 67.683 57.4728 67.292 57.4728 66.6765V65.2673H60.3952V65.7046C60.3952 66.8662 60.3119 67.6899 60.1453 68.1758C59.9833 68.6618 59.6201 69.0875 59.0555 69.4531C58.4955 69.8187 57.8037 70.0015 56.9799 70.0015C56.1238 70.0015 55.4181 69.8465 54.8627 69.5364C54.3074 69.2263 53.9395 68.7983 53.759 68.2522C53.5785 67.7015 53.4883 66.8755 53.4883 65.7741V62.4907C53.4883 61.6808 53.516 61.0746 53.5716 60.672C53.6271 60.2647 53.7914 59.8737 54.0644 59.4989C54.3421 59.124 54.7239 58.8301 55.2098 58.6173C55.7004 58.3998 56.2626 58.291 56.8966 58.291C57.7574 58.291 58.4678 58.4576 59.0277 58.7908C59.5877 59.124 59.9556 59.5405 60.1314 60.0403C60.3073 60.5355 60.3952 61.3083 60.3952 62.3588V63.4278Z" fill="#2D2E83"/>
<path d="M52.4426 58.5254V66.0362C52.4426 66.8877 52.4149 67.487 52.3593 67.8341C52.3038 68.1765 52.1395 68.5305 51.8665 68.8961C51.5934 69.2571 51.2325 69.5324 50.7836 69.7222C50.3393 69.9073 49.814 69.9998 49.2078 69.9998C48.5368 69.9998 47.9444 69.8888 47.4308 69.6667C46.9171 69.4445 46.533 69.1553 46.2784 68.799C46.0239 68.4426 45.8735 68.0678 45.8272 67.6744C45.781 67.2764 45.7578 66.4434 45.7578 65.1754V58.5254H48.6802V66.9525C48.6802 67.443 48.7057 67.7577 48.7566 67.8965C48.8121 68.0307 48.9209 68.0978 49.0829 68.0978C49.268 68.0978 49.386 68.0238 49.4369 67.8757C49.4924 67.723 49.5202 67.3667 49.5202 66.8067V58.5254H52.4426Z" fill="#2D2E83"/>
<path d="M38.1328 58.5254H40.2014C41.5805 58.5254 42.513 58.5786 42.9989 58.685C43.4894 58.7915 43.8874 59.0645 44.1929 59.5042C44.5029 59.9392 44.658 60.6356 44.658 61.5936C44.658 62.4682 44.5492 63.0559 44.3317 63.3567C44.1142 63.6575 43.6861 63.838 43.0475 63.8982C43.626 64.0416 44.0147 64.2337 44.2137 64.4743C44.4127 64.715 44.5353 64.9371 44.5816 65.1407C44.6325 65.3397 44.658 65.8927 44.658 66.7998V69.7638H41.9438V66.0293C41.9438 65.4277 41.8952 65.0551 41.798 64.9117C41.7054 64.7682 41.4579 64.6965 41.0552 64.6965V69.7638H38.1328V58.5254ZM41.0552 60.4482V62.9472C41.3838 62.9472 41.6129 62.9032 41.7425 62.8153C41.8767 62.7227 41.9438 62.4289 41.9438 61.9337V61.3159C41.9438 60.9596 41.879 60.7259 41.7494 60.6148C41.6245 60.5037 41.3931 60.4482 41.0552 60.4482Z" fill="#2D2E83"/>
<path d="M37.4644 58.5254V60.7745H35.729V69.7638H32.8066V60.7745H31.0781V58.5254H37.4644Z" fill="#2D2E83"/>
<path d="M30.4154 61.9284H27.7012V61.0954C27.7012 60.7067 27.6665 60.4591 27.5971 60.3527C27.5276 60.2462 27.412 60.193 27.25 60.193C27.0741 60.193 26.9399 60.2647 26.8474 60.4082C26.7594 60.5517 26.7155 60.7692 26.7155 61.0607C26.7155 61.4356 26.7664 61.7178 26.8682 61.9076C26.9654 62.0973 27.2407 62.3264 27.6942 62.5948C28.9946 63.3676 29.8138 64.0016 30.1516 64.4968C30.4894 64.992 30.6583 65.7903 30.6583 66.8917C30.6583 67.6922 30.5635 68.2823 30.3737 68.6618C30.1886 69.0412 29.8276 69.3605 29.2908 69.6197C28.754 69.8742 28.1293 70.0015 27.4166 70.0015C26.6345 70.0015 25.9658 69.8534 25.4104 69.5572C24.8597 69.261 24.4988 68.8839 24.3276 68.4257C24.1563 67.9676 24.0707 67.3174 24.0707 66.4752V65.7393H26.7849V67.1068C26.7849 67.528 26.8219 67.7987 26.896 67.919C26.9746 68.0393 27.1111 68.0995 27.3055 68.0995C27.4999 68.0995 27.6433 68.0231 27.7359 67.8704C27.8331 67.7177 27.8817 67.4909 27.8817 67.1901C27.8817 66.5284 27.7914 66.0957 27.6109 65.8921C27.4258 65.6884 26.97 65.3483 26.2434 64.8716C25.5169 64.3904 25.0356 64.041 24.7996 63.8235C24.5636 63.606 24.3669 63.3052 24.2095 62.9211C24.0568 62.537 23.9805 62.0464 23.9805 61.4494C23.9805 60.5887 24.0892 59.9593 24.3067 59.5613C24.5289 59.1633 24.8852 58.8533 25.3757 58.6312C25.8663 58.4044 26.4586 58.291 27.1528 58.291C27.9118 58.291 28.5573 58.4137 29.0895 58.6589C29.6263 58.9042 29.9804 59.2142 30.1516 59.5891C30.3274 59.9593 30.4154 60.591 30.4154 61.4841V61.9284Z" fill="#2D2E83"/>
<path d="M23.0408 58.5254V69.7638H20.4793L18.9591 64.6548V69.7638H16.5156V58.5254H18.9591L20.5973 63.5858V58.5254H23.0408Z" fill="#2D2E83"/>
<path d="M15.4174 65.1077C15.4174 66.2368 15.3896 67.0374 15.3341 67.5095C15.2832 67.9769 15.1166 68.4049 14.8343 68.7936C14.5566 69.1824 14.1795 69.4809 13.7028 69.6891C13.2262 69.8974 12.6708 70.0015 12.0368 70.0015C11.4352 70.0015 10.8938 69.9043 10.4125 69.7099C9.93583 69.5109 9.55172 69.2148 9.26017 68.8214C8.96862 68.4281 8.79508 68 8.73955 67.5372C8.68402 67.0744 8.65625 66.2646 8.65625 65.1077V63.1848C8.65625 62.0557 8.6817 61.2574 8.73261 60.79C8.78814 60.318 8.95474 59.8876 9.23241 59.4989C9.5147 59.1101 9.89418 58.8116 10.3708 58.6034C10.8475 58.3951 11.4028 58.291 12.0368 58.291C12.6384 58.291 13.1776 58.3905 13.6542 58.5895C14.1355 58.7839 14.5219 59.0777 14.8135 59.4711C15.105 59.8644 15.2786 60.2925 15.3341 60.7553C15.3896 61.2181 15.4174 62.0279 15.4174 63.1848V65.1077ZM12.495 61.4147C12.495 60.8918 12.4649 60.5586 12.4047 60.4151C12.3492 60.2671 12.2312 60.193 12.0507 60.193C11.898 60.193 11.78 60.2532 11.6967 60.3735C11.618 60.4892 11.5787 60.8363 11.5787 61.4147V66.6626C11.5787 67.3151 11.6041 67.7177 11.655 67.8704C11.7106 68.0231 11.8355 68.0995 12.0299 68.0995C12.2289 68.0995 12.3561 68.0116 12.4117 67.8357C12.4672 67.6599 12.495 67.241 12.495 66.5793V61.4147Z" fill="#2D2E83"/>
<path d="M7.69209 63.4278H4.76966V61.4703C4.76966 60.9011 4.73727 60.547 4.67248 60.4082C4.61232 60.2647 4.4758 60.193 4.26292 60.193C4.02228 60.193 3.86956 60.2786 3.80477 60.4499C3.73998 60.6211 3.70759 60.9913 3.70759 61.5605V66.7806C3.70759 67.3267 3.73998 67.683 3.80477 67.8496C3.86956 68.0162 4.01533 68.0995 4.24209 68.0995C4.4596 68.0995 4.60075 68.0162 4.66553 67.8496C4.73495 67.683 4.76966 67.292 4.76966 66.6765V65.2673H7.69209V65.7046C7.69209 66.8662 7.60879 67.6899 7.44219 68.1758C7.28022 68.6618 6.91694 69.0875 6.35235 69.4531C5.7924 69.8187 5.10054 70.0015 4.2768 70.0015C3.42067 70.0015 2.71493 69.8465 2.1596 69.5364C1.60427 69.2263 1.23636 68.7983 1.05588 68.2522C0.875398 67.7015 0.785156 66.8755 0.785156 65.7741V62.4907C0.785156 61.6808 0.812923 61.0746 0.868456 60.672C0.923989 60.2647 1.08827 59.8737 1.36131 59.4989C1.63898 59.124 2.02077 58.8301 2.50668 58.6173C2.99723 58.3998 3.5595 58.291 4.1935 58.291C5.05427 58.291 5.76463 58.4576 6.32459 58.7908C6.88455 59.124 7.25245 59.5405 7.42831 60.0403C7.60416 60.5355 7.69209 61.3083 7.69209 62.3588V63.4278Z" fill="#2D2E83"/>
</svg>
